<svg xmlns="http://www.w3.org/2000/svg" xmlns:xlink="http://www.w3.org/1999/xlink" width="500" zoomAndPan="magnify" viewBox="0 0 375 374.999991" height="500" preserveAspectRatio="xMidYMid meet" version="1.0"><defs><g/><clipPath id="de6df95438"><path d="M 213 85.167969 L 252 85.167969 L 252 111 L 213 111 Z M 213 85.167969 " clip-rule="nonzero"/></clipPath><clipPath id="b6a9e8067d"><path d="M 255 111 L 265.238281 111 L 265.238281 128 L 255 128 Z M 255 111 " clip-rule="nonzero"/></clipPath><clipPath id="f6a59bb522"><path d="M 109.988281 129 L 119 129 L 119 146 L 109.988281 146 Z M 109.988281 129 " clip-rule="nonzero"/></clipPath><clipPath id="f16bafc10b"><path d="M 124 186 L 250 186 L 250 199.167969 L 124 199.167969 Z M 124 186 " clip-rule="nonzero"/></clipPath></defs><g clip-path="url(#de6df95438)"><path fill="#233f6f" d="M 247.949219 91.617188 C 247.546875 94.425781 247.390625 97.207031 247.460938 99.933594 C 248.722656 99.351562 249.980469 98.757812 251.230469 98.152344 C 250.898438 94.050781 251.027344 89.734375 251.683594 85.171875 C 239.785156 95.480469 227.410156 104.40625 213.703125 109.523438 C 213.898438 109.808594 214.066406 110.113281 214.214844 110.433594 C 224.570312 106.570312 238.960938 99.40625 247.949219 91.617188 Z M 247.949219 91.617188 " fill-opacity="1" fill-rule="evenodd"/></g><g clip-path="url(#b6a9e8067d)"><path fill="#233f6f" d="M 258.066406 115.378906 C 257.136719 116.636719 256.273438 117.921875 255.472656 119.226562 C 255.546875 121.945312 255.824219 124.644531 256.289062 127.332031 C 258.210938 121.863281 261.058594 116.445312 265.003906 111.09375 C 261.875 111.796875 258.757812 112.445312 255.644531 113.023438 C 255.566406 113.988281 255.511719 114.945312 255.480469 115.902344 C 256.359375 115.742188 257.222656 115.570312 258.066406 115.378906 Z M 258.066406 115.378906 " fill-opacity="1" fill-rule="evenodd"/></g><path fill="#233f6f" d="M 212.601562 112.867188 C 212.523438 112.484375 212.421875 112.117188 212.285156 111.765625 C 228.175781 109.765625 243.613281 103.367188 258.886719 95.378906 C 251.199219 114.933594 254.273438 132.28125 262.679688 148.535156 L 217.871094 138.636719 C 218.207031 137.855469 218.464844 137.035156 218.671875 136.191406 L 255.066406 143.945312 C 248.714844 131.667969 247.476562 116.082031 253.285156 101.308594 C 241.746094 107.34375 224.609375 111.355469 212.601562 112.867188 Z M 212.601562 112.867188 " fill-opacity="1" fill-rule="evenodd"/><path fill="#233f6f" d="M 248.773438 138.769531 C 248.726562 138.632812 248.683594 138.496094 248.636719 138.359375 C 248.683594 138.496094 248.726562 138.632812 248.773438 138.769531 Z M 248.773438 138.769531 " fill-opacity="1" fill-rule="evenodd"/><path fill="#233f6f" d="M 246.589844 111.488281 L 246.667969 111.03125 C 246.640625 111.183594 246.617188 111.335938 246.589844 111.488281 Z M 246.589844 111.488281 " fill-opacity="1" fill-rule="evenodd"/><path fill="#233f6f" d="M 246.855469 110.035156 C 246.882812 109.882812 246.914062 109.734375 246.941406 109.585938 C 246.914062 109.734375 246.882812 109.882812 246.855469 110.035156 Z M 246.855469 110.035156 " fill-opacity="1" fill-rule="evenodd"/><path fill="#233f6f" d="M 246.945312 109.574219 C 246.976562 109.421875 247.007812 109.273438 247.039062 109.121094 Z M 246.945312 109.574219 " fill-opacity="1" fill-rule="evenodd"/><path fill="#233f6f" d="M 247.050781 109.066406 C 247.082031 108.929688 247.109375 108.796875 247.140625 108.660156 C 247.109375 108.796875 247.078125 108.929688 247.050781 109.066406 Z M 247.050781 109.066406 " fill-opacity="1" fill-rule="evenodd"/><path fill="#233f6f" d="M 247.152344 108.605469 C 247.1875 108.449219 247.21875 108.296875 247.253906 108.144531 C 247.21875 108.296875 247.1875 108.449219 247.152344 108.605469 Z M 247.152344 108.605469 " fill-opacity="1" fill-rule="evenodd"/><path fill="#233f6f" d="M 244.914062 98.953125 C 244.917969 99.65625 244.9375 100.359375 244.96875 101.058594 C 244.03125 101.472656 243.085938 101.878906 242.140625 102.28125 C 242.027344 102.230469 241.917969 102.171875 241.8125 102.105469 C 241.390625 101.847656 241.058594 101.492188 240.828125 101.085938 C 238.105469 102.824219 235.234375 104.480469 232.320312 106.027344 C 230.605469 106.605469 228.886719 107.148438 227.152344 107.648438 C 229.078125 106.71875 230.976562 105.746094 232.847656 104.734375 C 236.507812 102.757812 240.101562 100.605469 243.519531 98.230469 L 244.90625 97.269531 Z M 244.914062 98.953125 " fill-opacity="1" fill-rule="evenodd"/><path fill="#233f6f" d="M 127.289062 107.148438 C 127.472656 108.652344 127.585938 110.160156 127.628906 111.667969 L 128.566406 111.832031 C 128.550781 111.207031 128.519531 110.578125 128.480469 109.957031 C 129.015625 109.933594 129.550781 109.773438 130.03125 109.464844 C 130.488281 109.167969 130.84375 108.773438 131.082031 108.328125 L 145.210938 114.691406 L 148.871094 115.324219 L 127.089844 105.511719 Z M 127.289062 107.148438 " fill-opacity="1" fill-rule="evenodd"/><path fill="#233f6f" d="M 119.765625 110.316406 C 119.476562 105.253906 118.578125 100.179688 117.203125 95.105469 L 156.585938 113.203125 L 157.054688 113.417969 C 156.582031 114.074219 156.175781 114.789062 155.808594 115.539062 L 154.773438 115.070312 L 123.386719 100.929688 C 124.28125 104.242188 124.808594 107.695312 124.953125 111.210938 Z M 119.765625 110.316406 " fill-opacity="1" fill-rule="evenodd"/><g clip-path="url(#f6a59bb522)"><path fill="#233f6f" d="M 116.421875 141.113281 C 117.25 139.871094 118.015625 138.605469 118.722656 137.324219 C 118.527344 134.734375 118.140625 132.167969 117.578125 129.621094 C 115.988281 134.933594 113.515625 140.230469 109.988281 145.519531 C 112.945312 144.707031 115.890625 143.945312 118.832031 143.253906 C 118.867188 142.332031 118.878906 141.414062 118.863281 140.5 C 118.03125 140.691406 117.214844 140.894531 116.421875 141.113281 Z M 116.421875 141.113281 " fill-opacity="1" fill-rule="evenodd"/></g><path fill="#233f6f" d="M 153.511719 142.757812 L 153.546875 143.957031 C 140.878906 147.203125 128.625 153.175781 116.535156 160.242188 C 122.996094 141.230469 119.28125 124.808594 110.523438 109.671875 L 153.746094 117.105469 C 153.460938 117.863281 153.25 118.660156 153.089844 119.476562 L 117.996094 113.710938 C 124.613281 125.148438 126.496094 139.96875 121.617188 154.332031 C 130.464844 149.160156 143 145.128906 153.511719 142.757812 Z M 153.511719 142.757812 " fill-opacity="1" fill-rule="evenodd"/><path fill="#233f6f" d="M 126.152344 147.371094 C 127.886719 137.761719 127.007812 127.789062 123.371094 118.714844 L 122.757812 117.183594 L 153.621094 122.25 L 153.539062 123.117188 C 153.464844 123.917969 153.394531 124.722656 153.3125 125.523438 C 153.15625 127.019531 153.082031 128.566406 153.128906 130.070312 C 153.136719 130.269531 153.148438 130.585938 153.179688 130.957031 L 153.292969 135.066406 C 151.859375 133.050781 152.140625 127.796875 152.386719 125.425781 C 152.46875 124.640625 152.539062 123.835938 152.613281 123.027344 L 124.234375 118.367188 L 127.339844 118.875 C 127.222656 119.367188 126.984375 119.839844 126.617188 120.242188 C 126.230469 120.667969 125.753906 120.960938 125.246094 121.117188 C 127.738281 128.5625 128.484375 136.503906 127.550781 144.304688 L 127.589844 143.96875 C 128.421875 143.875 129.285156 144.121094 129.949219 144.722656 C 130.332031 145.074219 130.605469 145.5 130.761719 145.964844 L 130.46875 146.082031 C 137.816406 143.097656 145.941406 140.730469 153.410156 139.101562 L 153.433594 140.042969 C 148.789062 141.058594 144.175781 142.304688 139.675781 143.746094 C 135.53125 145.078125 131.417969 146.601562 127.445312 148.382812 L 125.835938 149.105469 Z M 126.152344 147.371094 " fill-opacity="1" fill-rule="evenodd"/><path fill="#233f6f" d="M 124.234375 118.367188 C 124.285156 118.496094 124.335938 118.621094 124.386719 118.75 C 124.335938 118.621094 124.285156 118.496094 124.234375 118.367188 Z M 124.234375 118.367188 " fill-opacity="1" fill-rule="evenodd"/><path fill="#233f6f" d="M 127.550781 144.3125 L 127.496094 144.75 C 127.515625 144.605469 127.535156 144.457031 127.550781 144.3125 Z M 127.550781 144.3125 " fill-opacity="1" fill-rule="evenodd"/><path fill="#233f6f" d="M 127.363281 145.710938 C 127.34375 145.855469 127.320312 146 127.296875 146.144531 C 127.320312 146 127.34375 145.855469 127.363281 145.710938 Z M 127.363281 145.710938 " fill-opacity="1" fill-rule="evenodd"/><path fill="#233f6f" d="M 127.296875 146.15625 C 127.273438 146.300781 127.25 146.445312 127.226562 146.589844 Z M 127.296875 146.15625 " fill-opacity="1" fill-rule="evenodd"/><path fill="#233f6f" d="M 127.21875 146.644531 C 127.199219 146.773438 127.175781 146.90625 127.152344 147.035156 C 127.175781 146.90625 127.195312 146.773438 127.21875 146.644531 Z M 127.21875 146.644531 " fill-opacity="1" fill-rule="evenodd"/><path fill="#233f6f" d="M 127.144531 147.089844 C 127.117188 147.238281 127.09375 147.386719 127.066406 147.535156 C 127.09375 147.386719 127.117188 147.238281 127.144531 147.089844 Z M 127.144531 147.089844 " fill-opacity="1" fill-rule="evenodd"/><path fill="#000000" d="M 184.699219 107.03125 L 184.699219 106.769531 C 184.699219 105.867188 185.007812 105.03125 185.53125 104.363281 C 186.25 103.445312 187.367188 102.851562 188.621094 102.851562 L 194.089844 102.851562 C 196.242188 102.851562 198.003906 104.613281 198.003906 106.769531 L 198.003906 143.085938 C 198.003906 143.414062 197.964844 143.730469 197.890625 144.035156 L 184.816406 144.035156 C 184.738281 143.730469 184.699219 143.414062 184.699219 143.085938 L 184.699219 142.824219 C 184.699219 134.082031 184.699219 115.800781 184.699219 107.03125 Z M 213.296875 119.644531 L 212.054688 138.449219 C 211.886719 138.703125 211.445312 139.128906 211.289062 139.277344 C 210.519531 140.011719 209.738281 140.707031 209 141.472656 C 207.636719 142.878906 206.175781 144.035156 204.132812 144.035156 L 201.019531 144.035156 C 200.949219 143.960938 200.878906 143.878906 200.816406 143.796875 C 200.296875 143.132812 199.988281 142.296875 199.988281 141.390625 L 199.988281 109.121094 C 199.988281 108.214844 200.296875 107.378906 200.816406 106.714844 C 201.535156 105.796875 202.65625 105.203125 203.90625 105.203125 L 209.375 105.203125 C 211.53125 105.203125 213.296875 106.964844 213.296875 109.121094 Z M 182.664062 142.1875 L 182.664062 142.222656 C 182.664062 142.875 182.5 143.488281 182.214844 144.035156 L 180.402344 144.035156 C 179.046875 144.035156 177.742188 144.503906 176.804688 145.507812 C 176.621094 145.707031 176.453125 145.917969 176.3125 146.136719 L 173.273438 146.136719 C 172.023438 146.136719 170.902344 145.546875 170.183594 144.625 C 169.667969 143.960938 169.355469 143.125 169.355469 142.222656 L 169.355469 109.949219 C 169.355469 109.042969 169.667969 108.207031 170.183594 107.542969 C 170.902344 106.625 172.023438 106.03125 173.273438 106.03125 L 178.742188 106.03125 C 180.898438 106.03125 182.660156 107.792969 182.660156 109.949219 L 182.660156 142.1875 Z M 214.351562 135.996094 L 215.328125 136.492188 C 215.390625 136.292969 215.453125 136.089844 215.511719 135.886719 L 214.734375 135.71875 L 215.273438 131.917969 C 215.394531 131.074219 215.507812 130.230469 215.636719 129.386719 C 215.851562 127.960938 215.992188 126.503906 216.015625 125.0625 C 216.027344 124.535156 216 123.359375 215.867188 122.570312 L 215.148438 122.304688 L 214.234375 136.214844 Z M 200.449219 159.363281 C 214.050781 159.363281 215.957031 157.292969 222.292969 150.035156 L 212.789062 145.113281 L 209.769531 143.550781 C 208.847656 144.410156 207.863281 145.128906 206.730469 145.574219 L 206.714844 145.578125 L 206.519531 145.648438 L 206.429688 145.683594 L 206.324219 145.71875 L 206.308594 145.722656 L 206.21875 145.75 L 206.203125 145.753906 L 206.109375 145.78125 L 206.097656 145.785156 L 206.003906 145.8125 L 205.992188 145.816406 L 205.953125 145.824219 L 205.878906 145.84375 L 205.78125 145.867188 L 205.769531 145.871094 L 205.667969 145.890625 L 205.660156 145.894531 L 205.609375 145.90625 L 205.433594 145.9375 L 205.332031 145.957031 L 205.320312 145.957031 L 205.214844 145.976562 L 205.207031 145.976562 L 205.097656 145.992188 L 205.09375 145.992188 L 204.980469 146.003906 L 204.976562 146.007812 L 204.863281 146.019531 L 204.859375 146.019531 L 204.746094 146.03125 L 204.742188 146.03125 L 204.5 146.046875 L 204.382812 146.050781 L 204.257812 146.050781 L 204.136719 146.054688 C 204.136719 146.058594 196.507812 146.054688 195.851562 146.054688 L 186.214844 146.054688 C 183.183594 146.054688 177.015625 144.71875 177.71875 149.605469 C 178.019531 151.671875 179.273438 154.109375 179.730469 155.441406 C 180.476562 157.597656 182.847656 159.359375 185.003906 159.359375 L 200.449219 159.359375 Z M 204.257812 146.054688 Z M 204.378906 146.054688 Z M 204.625 146.042969 Z M 206.519531 145.648438 Z M 154.621094 138.503906 L 154.621094 117.984375 L 154.636719 117.941406 L 154.621094 117.9375 L 154.621094 114.820312 C 154.621094 113.917969 154.929688 113.082031 155.449219 112.417969 C 156.167969 111.496094 157.285156 110.902344 158.539062 110.902344 L 164.007812 110.902344 C 166.164062 110.902344 167.925781 112.667969 167.925781 114.820312 L 167.925781 141.664062 C 167.925781 143.820312 166.164062 145.585938 164.007812 145.585938 L 158.539062 145.585938 C 157.285156 145.585938 156.167969 144.992188 155.449219 144.070312 C 154.929688 143.40625 154.621094 142.570312 154.621094 141.664062 L 154.621094 138.550781 L 154.636719 138.546875 Z M 154.621094 138.503906 " fill-opacity="1" fill-rule="evenodd"/><path fill="#000000" d="M 217.140625 157.089844 C 216.492188 157.648438 215.808594 158.160156 215.078125 158.617188 C 210.707031 161.347656 204.804688 161.441406 199.8125 161.441406 L 185.085938 161.441406 C 183.523438 161.441406 181.96875 160.808594 180.703125 159.800781 C 179.578125 158.902344 178.683594 157.707031 178.234375 156.40625 C 177.832031 155.234375 177.265625 154.101562 176.851562 152.90625 C 176.582031 152.125 176.351562 151.3125 176.230469 150.488281 C 176.152344 149.929688 176.132812 149.371094 176.199219 148.832031 L 173.90625 148.832031 C 172.15625 148.832031 170.515625 148.023438 169.441406 146.648438 L 169.277344 146.425781 C 168.238281 147.578125 166.738281 148.304688 165.070312 148.304688 L 159.855469 148.304688 C 158.824219 148.304688 157.828125 148.023438 156.964844 147.511719 C 156.964844 158.136719 159.957031 166.5 169.648438 168.925781 C 169.433594 168.875 171.71875 174.472656 172.015625 175.457031 C 172.808594 178.035156 173.492188 181.070312 174.007812 184.679688 L 200.613281 184.679688 C 201.132812 181.070312 201.8125 178.035156 202.605469 175.457031 C 203.460938 172.65625 204.449219 170.390625 205.496094 168.511719 C 205.15625 168.601562 217.144531 165.117188 217.144531 157.089844 Z M 212.085938 186.027344 L 208.605469 179.414062 C 208.160156 181.074219 207.769531 182.832031 207.382812 184.769531 L 207.269531 185.328125 C 208.875 185.535156 210.480469 185.769531 212.085938 186.027344 Z M 201.824219 183.15625 C 201.742188 183.671875 201.664062 184.1875 201.585938 184.703125 L 202.355469 184.773438 C 203.429688 184.878906 204.507812 184.992188 205.582031 185.121094 L 205.503906 184.847656 C 204.699219 182.054688 205.382812 178.855469 206.683594 175.746094 L 206.089844 174.621094 L 204.804688 172.171875 C 204.320312 173.339844 203.898438 174.53125 203.527344 175.738281 C 202.785156 178.160156 202.242188 180.648438 201.828125 183.15625 Z M 201.824219 183.15625 " fill-opacity="1" fill-rule="evenodd"/><path fill="#233f6f" d="M 206.433594 184.582031 C 207.453125 179.476562 208.46875 174.175781 213.246094 166.410156 C 209.6875 171.558594 204.84375 179.054688 206.433594 184.582031 Z M 163.054688 180.4375 C 162.292969 176.628906 161.535156 172.683594 157.972656 166.890625 C 160.625 170.730469 164.238281 176.316406 163.054688 180.4375 Z M 168.226562 184.582031 C 169.816406 179.054688 164.972656 171.558594 161.414062 166.410156 C 166.191406 174.179688 167.210938 179.476562 168.226562 184.582031 Z M 211.609375 180.4375 C 210.421875 176.316406 214.03125 170.730469 216.6875 166.890625 C 213.125 172.683594 212.367188 176.628906 211.609375 180.4375 Z M 211.609375 180.4375 " fill-opacity="1" fill-rule="evenodd"/><path fill="#233f6f" d="M 206.699219 184.453125 L 206.476562 185.574219 L 206.207031 184.644531 C 205.394531 181.820312 206.214844 178.511719 207.695312 175.257812 C 209.15625 172.039062 211.257812 168.871094 213.042969 166.292969 L 213.054688 166.277344 L 213.445312 166.53125 C 208.746094 174.175781 207.703125 179.417969 206.699219 184.453125 Z M 206.429688 183.402344 C 207.140625 179.886719 207.976562 176.207031 210.128906 171.640625 C 209.398438 172.878906 208.707031 174.160156 208.121094 175.449219 C 206.878906 178.1875 206.109375 180.953125 206.429688 183.402344 Z M 162.824219 180.484375 L 162.796875 180.355469 C 162.050781 176.605469 161.273438 172.707031 157.773438 167.015625 L 158.167969 166.757812 L 158.175781 166.773438 C 159.507812 168.699219 161.074219 171.058594 162.167969 173.460938 C 163.273438 175.898438 163.890625 178.378906 163.28125 180.5 L 163.011719 181.433594 Z M 160.871094 171.925781 C 162.035156 174.652344 162.582031 176.957031 163.035156 179.15625 C 163.148438 177.445312 162.59375 175.539062 161.738281 173.65625 C 161.476562 173.074219 161.183594 172.496094 160.871094 171.925781 Z M 168.230469 183.402344 C 168.550781 180.953125 167.78125 178.1875 166.539062 175.449219 C 165.953125 174.164062 165.265625 172.882812 164.535156 171.648438 C 166.6875 176.210938 167.523438 179.890625 168.230469 183.402344 Z M 166.964844 175.257812 C 168.445312 178.511719 169.265625 181.820312 168.453125 184.644531 L 168.183594 185.574219 L 167.960938 184.460938 C 166.960938 179.425781 165.917969 174.179688 161.210938 166.53125 L 161.605469 166.277344 L 161.613281 166.289062 C 163.398438 168.871094 165.503906 172.035156 166.964844 175.253906 Z M 211.382812 180.503906 C 210.769531 178.378906 211.386719 175.898438 212.492188 173.464844 C 213.585938 171.0625 215.152344 168.699219 216.484375 166.773438 L 216.492188 166.761719 L 216.886719 167.015625 C 213.386719 172.707031 212.609375 176.609375 211.863281 180.355469 L 211.648438 181.433594 Z M 212.921875 173.65625 C 212.066406 175.542969 211.511719 177.445312 211.625 179.15625 C 212.078125 176.957031 212.625 174.652344 213.785156 171.929688 C 213.476562 172.5 213.183594 173.074219 212.921875 173.65625 Z M 212.921875 173.65625 " fill-opacity="1" fill-rule="evenodd"/><g clip-path="url(#f16bafc10b)"><path fill="#233f6f" d="M 249.238281 199.242188 C 207.320312 190.089844 165.847656 190.09375 124.328125 199.242188 C 165.367188 182.835938 206.945312 181.222656 249.238281 199.242188 Z M 249.238281 199.242188 " fill-opacity="1" fill-rule="evenodd"/></g><path fill="#233f6f" d="M 219.34375 132.5 L 245.554688 138.082031 C 245.703125 137.574219 245.976562 137.089844 246.378906 136.6875 C 246.804688 136.265625 247.316406 135.984375 247.855469 135.84375 C 245.648438 128.054688 245.238281 119.84375 246.53125 111.84375 C 245.65625 111.902344 244.765625 111.601562 244.101562 110.9375 C 243.71875 110.554688 243.457031 110.09375 243.3125 109.601562 L 243.621094 109.496094 C 233.746094 112.972656 222.632812 115.363281 213.292969 116.554688 L 213.292969 117.773438 C 213.976562 117.71875 214.578125 117.726562 215.480469 118.050781 L 218.273438 119.070312 C 220.832031 120 220.140625 127.097656 219.699219 130 C 219.574219 130.820312 219.464844 131.65625 219.34375 132.5 Z M 233.628906 127.324219 C 231.351562 127.542969 229.332031 125.871094 229.113281 123.59375 C 228.894531 121.316406 230.566406 119.292969 232.84375 119.074219 C 235.613281 118.8125 237.820312 121.304688 237.304688 123.984375 C 236.964844 125.746094 235.503906 127.144531 233.628906 127.324219 Z M 233.628906 127.324219 " fill-opacity="1" fill-rule="evenodd"/><path fill="#233f6f" d="M 233.140625 123.363281 L 233.257812 125.5 C 232.1875 125.550781 232.167969 124.488281 232.132812 124.410156 C 232.125 124.378906 232.007812 124.296875 232 124.5625 C 231.996094 124.765625 231.964844 125.582031 232.074219 125.671875 C 232.289062 125.84375 232.96875 125.859375 233.277344 125.835938 L 233.324219 126.699219 L 233.789062 126.675781 L 233.738281 125.757812 C 235.035156 125.394531 235.324219 123.917969 234.207031 122.929688 L 233.554688 122.445312 L 233.457031 120.628906 C 234.378906 120.59375 234.429688 121.445312 234.449219 121.476562 C 234.460938 121.503906 234.585938 121.59375 234.570312 121.292969 L 234.523438 120.394531 L 233.433594 120.304688 L 233.390625 119.441406 L 232.925781 119.46875 L 232.976562 120.390625 C 231.804688 120.75 231.609375 121.988281 232.546875 122.890625 C 232.695312 123.03125 232.875 123.175781 233.089844 123.324219 Z M 232.996094 120.742188 L 233.070312 122.097656 C 232.519531 121.644531 232.464844 121.058594 232.996094 120.742188 Z M 233.621094 123.707031 C 234.328125 124.277344 234.363281 125.066406 233.714844 125.390625 Z M 233.621094 123.707031 " fill-opacity="1" fill-rule="evenodd"/><path fill="#233f6f" d="M 140.625 132.464844 L 140.769531 135.042969 C 139.476562 135.101562 139.453125 133.820312 139.414062 133.726562 C 139.402344 133.691406 139.261719 133.589844 139.253906 133.910156 C 139.25 134.15625 139.210938 135.136719 139.34375 135.246094 C 139.601562 135.453125 140.417969 135.472656 140.789062 135.445312 L 140.847656 136.484375 L 141.40625 136.457031 L 141.34375 135.351562 C 142.90625 134.914062 143.257812 133.132812 141.910156 131.945312 L 141.125 131.363281 L 141.007812 129.171875 C 142.117188 129.132812 142.179688 130.160156 142.203125 130.195312 C 142.21875 130.226562 142.367188 130.335938 142.347656 129.972656 L 142.292969 128.890625 L 140.980469 128.785156 L 140.929688 127.742188 L 140.367188 127.773438 L 140.429688 128.886719 C 139.015625 129.320312 138.78125 130.8125 139.914062 131.898438 C 140.089844 132.066406 140.308594 132.242188 140.566406 132.421875 Z M 140.453125 129.3125 L 140.542969 130.945312 C 139.878906 130.398438 139.816406 129.695312 140.453125 129.3125 Z M 141.210938 132.882812 C 142.058594 133.570312 142.101562 134.519531 141.320312 134.914062 Z M 141.210938 132.882812 " fill-opacity="1" fill-rule="evenodd"/><g fill="#000000" fill-opacity="1"><g transform="translate(83.506564, 248.258317)"><g><path d="M 19.734375 -29.671875 L 19.734375 -23.890625 L 14 -23.890625 L 14 0 L 5.921875 0 L 5.921875 -23.890625 L 0.234375 -23.890625 L 0.234375 -29.671875 Z M 19.734375 -29.671875 "/></g></g></g><g fill="#000000" fill-opacity="1"><g transform="translate(103.475725, 248.258317)"><g><path d="M 9.9375 -10.53125 L 9.9375 0 L 1.84375 0 L 1.84375 -29.671875 L 15.578125 -29.671875 C 20.109375 -29.671875 22.375 -27.757812 22.375 -23.9375 L 22.375 -16.265625 C 22.375 -13.335938 21.046875 -11.535156 18.390625 -10.859375 L 23.84375 0 L 15.15625 0 L 10.453125 -10.53125 Z M 13.125 -23.890625 L 9.9375 -23.890625 L 9.9375 -16.03125 L 13.125 -16.03125 C 13.894531 -16.03125 14.28125 -16.367188 14.28125 -17.046875 L 14.28125 -22.875 C 14.28125 -23.550781 13.894531 -23.890625 13.125 -23.890625 Z M 13.125 -23.890625 "/></g></g></g><g fill="#000000" fill-opacity="1"><g transform="translate(127.235327, 248.258317)"><g><path d="M 8.5 -29.671875 L 15.34375 -29.671875 C 19.875 -29.671875 22.140625 -27.757812 22.140625 -23.9375 L 22.140625 -5.734375 C 22.140625 -1.910156 19.875 0 15.34375 0 L 8.5 0 C 3.96875 0 1.703125 -1.910156 1.703125 -5.734375 L 1.703125 -23.9375 C 1.703125 -27.757812 3.96875 -29.671875 8.5 -29.671875 Z M 14.046875 -6.796875 L 14.046875 -22.875 C 14.046875 -23.550781 13.660156 -23.890625 12.890625 -23.890625 L 10.953125 -23.890625 C 10.179688 -23.890625 9.796875 -23.550781 9.796875 -22.875 L 9.796875 -6.796875 C 9.796875 -6.117188 10.179688 -5.78125 10.953125 -5.78125 L 12.890625 -5.78125 C 13.660156 -5.78125 14.046875 -6.117188 14.046875 -6.796875 Z M 14.046875 -6.796875 "/></g></g></g><g fill="#000000" fill-opacity="1"><g transform="translate(151.087373, 248.258317)"><g><path d="M 21.71875 -18.578125 L 13.640625 -18.578125 L 13.640625 -23.34375 C 13.640625 -24.019531 13.253906 -24.359375 12.484375 -24.359375 L 10.859375 -24.359375 C 10.085938 -24.359375 9.703125 -24.019531 9.703125 -23.34375 L 9.703125 -6.328125 C 9.703125 -5.648438 10.085938 -5.3125 10.859375 -5.3125 L 12.484375 -5.3125 C 13.253906 -5.3125 13.640625 -5.648438 13.640625 -6.328125 L 13.640625 -10.90625 L 21.71875 -10.90625 L 21.71875 -5.734375 C 21.71875 -1.910156 19.453125 0 14.921875 0 L 8.40625 0 C 3.882812 0 1.625 -1.910156 1.625 -5.734375 L 1.625 -23.9375 C 1.625 -27.757812 3.882812 -29.671875 8.40625 -29.671875 L 14.921875 -29.671875 C 19.453125 -29.671875 21.71875 -27.757812 21.71875 -23.9375 Z M 21.71875 -18.578125 "/></g></g></g><g fill="#000000" fill-opacity="1"><g transform="translate(173.968701, 248.258317)"><g><path d="M 16.96875 0 L 16.03125 -4.4375 L 8.921875 -4.4375 L 7.953125 0 L 0 0 L 7.625 -29.671875 L 17.46875 -29.671875 L 25.09375 0 Z M 10.171875 -10.171875 L 14.796875 -10.171875 L 12.53125 -20.84375 Z M 10.171875 -10.171875 "/></g></g></g><g fill="#000000" fill-opacity="1"><g transform="translate(199.068819, 248.258317)"><g/></g></g><g fill="#000000" fill-opacity="1"><g transform="translate(208.313796, 248.258317)"><g><path d="M 21.71875 -18.578125 L 13.640625 -18.578125 L 13.640625 -23.34375 C 13.640625 -24.019531 13.253906 -24.359375 12.484375 -24.359375 L 10.859375 -24.359375 C 10.085938 -24.359375 9.703125 -24.019531 9.703125 -23.34375 L 9.703125 -6.328125 C 9.703125 -5.648438 10.085938 -5.3125 10.859375 -5.3125 L 12.484375 -5.3125 C 13.253906 -5.3125 13.640625 -5.648438 13.640625 -6.328125 L 13.640625 -10.90625 L 21.71875 -10.90625 L 21.71875 -5.734375 C 21.71875 -1.910156 19.453125 0 14.921875 0 L 8.40625 0 C 3.882812 0 1.625 -1.910156 1.625 -5.734375 L 1.625 -23.9375 C 1.625 -27.757812 3.882812 -29.671875 8.40625 -29.671875 L 14.921875 -29.671875 C 19.453125 -29.671875 21.71875 -27.757812 21.71875 -23.9375 Z M 21.71875 -18.578125 "/></g></g></g><g fill="#000000" fill-opacity="1"><g transform="translate(231.195124, 248.258317)"><g><path d="M 8.5 -29.671875 L 15.34375 -29.671875 C 19.875 -29.671875 22.140625 -27.757812 22.140625 -23.9375 L 22.140625 -5.734375 C 22.140625 -1.910156 19.875 0 15.34375 0 L 8.5 0 C 3.96875 0 1.703125 -1.910156 1.703125 -5.734375 L 1.703125 -23.9375 C 1.703125 -27.757812 3.96875 -29.671875 8.5 -29.671875 Z M 14.046875 -6.796875 L 14.046875 -22.875 C 14.046875 -23.550781 13.660156 -23.890625 12.890625 -23.890625 L 10.953125 -23.890625 C 10.179688 -23.890625 9.796875 -23.550781 9.796875 -22.875 L 9.796875 -6.796875 C 9.796875 -6.117188 10.179688 -5.78125 10.953125 -5.78125 L 12.890625 -5.78125 C 13.660156 -5.78125 14.046875 -6.117188 14.046875 -6.796875 Z M 14.046875 -6.796875 "/></g></g></g><g fill="#000000" fill-opacity="1"><g transform="translate(255.047162, 248.258317)"><g><path d="M 1.84375 -29.671875 L 9.9375 -29.671875 L 9.9375 0 L 1.84375 0 Z M 1.84375 -29.671875 "/></g></g></g><g fill="#000000" fill-opacity="1"><g transform="translate(266.834509, 248.258317)"><g><path d="M 15.390625 -29.671875 L 22.78125 -29.671875 L 22.78125 0 L 15.859375 0 L 9.25 -15.578125 L 9.25 0 L 1.84375 0 L 1.84375 -29.671875 L 8.78125 -29.671875 L 15.390625 -13.8125 Z M 15.390625 -29.671875 "/></g></g></g><g fill="#000000" fill-opacity="1"><g transform="translate(102.34142, 282.298771)"><g><path d="M 9.75 -8.328125 L 6.109375 -8.328125 L 6.109375 -10.46875 C 6.109375 -10.769531 5.9375 -10.921875 5.59375 -10.921875 L 4.875 -10.921875 C 4.53125 -10.921875 4.359375 -10.769531 4.359375 -10.46875 L 4.359375 -2.84375 C 4.359375 -2.539062 4.53125 -2.390625 4.875 -2.390625 L 5.59375 -2.390625 C 5.9375 -2.390625 6.109375 -2.539062 6.109375 -2.84375 L 6.109375 -4.890625 L 9.75 -4.890625 L 9.75 -2.578125 C 9.75 -0.859375 8.734375 0 6.703125 0 L 3.78125 0 C 1.738281 0 0.71875 -0.859375 0.71875 -2.578125 L 0.71875 -10.734375 C 0.71875 -12.453125 1.738281 -13.3125 3.78125 -13.3125 L 6.703125 -13.3125 C 8.734375 -13.3125 9.75 -12.453125 9.75 -10.734375 Z M 9.75 -8.328125 "/></g></g></g><g fill="#000000" fill-opacity="1"><g transform="translate(113.645068, 282.298771)"><g><path d="M 3.8125 -13.3125 L 6.890625 -13.3125 C 8.921875 -13.3125 9.9375 -12.453125 9.9375 -10.734375 L 9.9375 -2.578125 C 9.9375 -0.859375 8.921875 0 6.890625 0 L 3.8125 0 C 1.78125 0 0.765625 -0.859375 0.765625 -2.578125 L 0.765625 -10.734375 C 0.765625 -12.453125 1.78125 -13.3125 3.8125 -13.3125 Z M 6.296875 -3.046875 L 6.296875 -10.265625 C 6.296875 -10.566406 6.125 -10.71875 5.78125 -10.71875 L 4.90625 -10.71875 C 4.5625 -10.71875 4.390625 -10.566406 4.390625 -10.265625 L 4.390625 -3.046875 C 4.390625 -2.742188 4.5625 -2.59375 4.90625 -2.59375 L 5.78125 -2.59375 C 6.125 -2.59375 6.296875 -2.742188 6.296875 -3.046875 Z M 6.296875 -3.046875 "/></g></g></g><g fill="#000000" fill-opacity="1"><g transform="translate(125.384271, 282.298771)"><g><path d="M 6.90625 -13.3125 L 10.21875 -13.3125 L 10.21875 0 L 7.109375 0 L 4.140625 -6.984375 L 4.140625 0 L 0.828125 0 L 0.828125 -13.3125 L 3.9375 -13.3125 L 6.90625 -6.203125 Z M 6.90625 -13.3125 "/></g></g></g><g fill="#000000" fill-opacity="1"><g transform="translate(137.476058, 282.298771)"><g><path d="M 7.125 -13.3125 L 10.90625 -13.3125 L 7.625 0 L 3.421875 0 L 0.140625 -13.3125 L 3.921875 -13.3125 L 5.515625 -4.421875 Z M 7.125 -13.3125 "/></g></g></g><g fill="#000000" fill-opacity="1"><g transform="translate(149.567843, 282.298771)"><g><path d="M 4.453125 -2.59375 L 9 -2.59375 L 9 0 L 0.828125 0 L 0.828125 -13.3125 L 8.8125 -13.3125 L 8.8125 -10.71875 L 4.453125 -10.71875 L 4.453125 -8 L 8.203125 -8 L 8.203125 -5.40625 L 4.453125 -5.40625 Z M 4.453125 -2.59375 "/></g></g></g><g fill="#000000" fill-opacity="1"><g transform="translate(159.917436, 282.298771)"><g><path d="M 4.453125 -4.734375 L 4.453125 0 L 0.828125 0 L 0.828125 -13.3125 L 6.984375 -13.3125 C 9.015625 -13.3125 10.03125 -12.453125 10.03125 -10.734375 L 10.03125 -7.296875 C 10.03125 -5.984375 9.4375 -5.175781 8.25 -4.875 L 10.703125 0 L 6.796875 0 L 4.6875 -4.734375 Z M 5.890625 -10.71875 L 4.453125 -10.71875 L 4.453125 -7.1875 L 5.890625 -7.1875 C 6.234375 -7.1875 6.40625 -7.34375 6.40625 -7.65625 L 6.40625 -10.265625 C 6.40625 -10.566406 6.234375 -10.71875 5.890625 -10.71875 Z M 5.890625 -10.71875 "/></g></g></g><g fill="#000000" fill-opacity="1"><g transform="translate(171.615156, 282.298771)"><g><path d="M 5.9375 -3.046875 L 5.9375 -4.9375 C 5.9375 -5.238281 5.757812 -5.390625 5.40625 -5.390625 L 3.421875 -5.390625 C 2.398438 -5.390625 1.675781 -5.613281 1.25 -6.0625 C 0.832031 -6.507812 0.625 -7.15625 0.625 -8 L 0.625 -10.734375 C 0.625 -12.453125 1.632812 -13.3125 3.65625 -13.3125 L 6.484375 -13.3125 C 8.503906 -13.3125 9.515625 -12.453125 9.515625 -10.734375 L 9.515625 -9.140625 L 5.890625 -9.140625 L 5.890625 -10.265625 C 5.890625 -10.566406 5.71875 -10.71875 5.375 -10.71875 L 4.765625 -10.71875 C 4.421875 -10.71875 4.25 -10.566406 4.25 -10.265625 L 4.25 -8.296875 C 4.25 -7.992188 4.421875 -7.84375 4.765625 -7.84375 L 6.71875 -7.84375 C 7.738281 -7.84375 8.46875 -7.625 8.90625 -7.1875 C 9.34375 -6.757812 9.5625 -6.132812 9.5625 -5.3125 L 9.5625 -2.578125 C 9.5625 -0.859375 8.550781 0 6.53125 0 L 3.71875 0 C 1.675781 0 0.65625 -0.859375 0.65625 -2.578125 L 0.65625 -4.171875 L 4.296875 -4.171875 L 4.296875 -3.046875 C 4.296875 -2.742188 4.46875 -2.59375 4.8125 -2.59375 L 5.40625 -2.59375 C 5.757812 -2.59375 5.9375 -2.742188 5.9375 -3.046875 Z M 5.9375 -3.046875 "/></g></g></g><g fill="#000000" fill-opacity="1"><g transform="translate(182.835845, 282.298771)"><g><path d="M 3.8125 -13.3125 L 6.890625 -13.3125 C 8.921875 -13.3125 9.9375 -12.453125 9.9375 -10.734375 L 9.9375 -2.578125 C 9.9375 -0.859375 8.921875 0 6.890625 0 L 3.8125 0 C 1.78125 0 0.765625 -0.859375 0.765625 -2.578125 L 0.765625 -10.734375 C 0.765625 -12.453125 1.78125 -13.3125 3.8125 -13.3125 Z M 6.296875 -3.046875 L 6.296875 -10.265625 C 6.296875 -10.566406 6.125 -10.71875 5.78125 -10.71875 L 4.90625 -10.71875 C 4.5625 -10.71875 4.390625 -10.566406 4.390625 -10.265625 L 4.390625 -3.046875 C 4.390625 -2.742188 4.5625 -2.59375 4.90625 -2.59375 L 5.78125 -2.59375 C 6.125 -2.59375 6.296875 -2.742188 6.296875 -3.046875 Z M 6.296875 -3.046875 "/></g></g></g><g fill="#000000" fill-opacity="1"><g transform="translate(194.575047, 282.298771)"><g><path d="M 4.453125 -4.734375 L 4.453125 0 L 0.828125 0 L 0.828125 -13.3125 L 6.984375 -13.3125 C 9.015625 -13.3125 10.03125 -12.453125 10.03125 -10.734375 L 10.03125 -7.296875 C 10.03125 -5.984375 9.4375 -5.175781 8.25 -4.875 L 10.703125 0 L 6.796875 0 L 4.6875 -4.734375 Z M 5.890625 -10.71875 L 4.453125 -10.71875 L 4.453125 -7.1875 L 5.890625 -7.1875 C 6.234375 -7.1875 6.40625 -7.34375 6.40625 -7.65625 L 6.40625 -10.265625 C 6.40625 -10.566406 6.234375 -10.71875 5.890625 -10.71875 Z M 5.890625 -10.71875 "/></g></g></g><g fill="#000000" fill-opacity="1"><g transform="translate(206.272764, 282.298771)"><g/></g></g><g fill="#000000" fill-opacity="1"><g transform="translate(211.457987, 282.298771)"><g><path d="M 3.8125 -13.3125 L 6.890625 -13.3125 C 8.921875 -13.3125 9.9375 -12.453125 9.9375 -10.734375 L 9.9375 -2.578125 C 9.9375 -0.859375 8.921875 0 6.890625 0 L 3.8125 0 C 1.78125 0 0.765625 -0.859375 0.765625 -2.578125 L 0.765625 -10.734375 C 0.765625 -12.453125 1.78125 -13.3125 3.8125 -13.3125 Z M 6.296875 -3.046875 L 6.296875 -10.265625 C 6.296875 -10.566406 6.125 -10.71875 5.78125 -10.71875 L 4.90625 -10.71875 C 4.5625 -10.71875 4.390625 -10.566406 4.390625 -10.265625 L 4.390625 -3.046875 C 4.390625 -2.742188 4.5625 -2.59375 4.90625 -2.59375 L 5.78125 -2.59375 C 6.125 -2.59375 6.296875 -2.742188 6.296875 -3.046875 Z M 6.296875 -3.046875 "/></g></g></g><g fill="#000000" fill-opacity="1"><g transform="translate(223.19719, 282.298771)"><g><path d="M 6.90625 -13.3125 L 10.21875 -13.3125 L 10.21875 0 L 7.109375 0 L 4.140625 -6.984375 L 4.140625 0 L 0.828125 0 L 0.828125 -13.3125 L 3.9375 -13.3125 L 6.90625 -6.203125 Z M 6.90625 -13.3125 "/></g></g></g><g fill="#000000" fill-opacity="1"><g transform="translate(235.288982, 282.298771)"><g><path d="M 4.453125 -2.59375 L 8.578125 -2.59375 L 8.578125 0 L 0.828125 0 L 0.828125 -13.3125 L 4.453125 -13.3125 Z M 4.453125 -2.59375 "/></g></g></g><g fill="#000000" fill-opacity="1"><g transform="translate(244.912666, 282.298771)"><g><path d="M 0.828125 -13.3125 L 4.453125 -13.3125 L 4.453125 0 L 0.828125 0 Z M 0.828125 -13.3125 "/></g></g></g><g fill="#000000" fill-opacity="1"><g transform="translate(251.238618, 282.298771)"><g><path d="M 6.90625 -13.3125 L 10.21875 -13.3125 L 10.21875 0 L 7.109375 0 L 4.140625 -6.984375 L 4.140625 0 L 0.828125 0 L 0.828125 -13.3125 L 3.9375 -13.3125 L 6.90625 -6.203125 Z M 6.90625 -13.3125 "/></g></g></g><g fill="#000000" fill-opacity="1"><g transform="translate(263.33041, 282.298771)"><g><path d="M 4.453125 -2.59375 L 9 -2.59375 L 9 0 L 0.828125 0 L 0.828125 -13.3125 L 8.8125 -13.3125 L 8.8125 -10.71875 L 4.453125 -10.71875 L 4.453125 -8 L 8.203125 -8 L 8.203125 -5.40625 L 4.453125 -5.40625 Z M 4.453125 -2.59375 "/></g></g></g></svg>