<svg xmlns="http://www.w3.org/2000/svg" xmlns:xlink="http://www.w3.org/1999/xlink" width="1920" zoomAndPan="magnify" viewBox="0 0 1440 809.999993" height="1080" preserveAspectRatio="xMidYMid meet" version="1.0"><defs><g/><clipPath id="42e1a98bda"><path d="M 296 242 L 510.75 242 L 510.75 468 L 296 468 Z M 296 242 " clip-rule="nonzero"/></clipPath><clipPath id="a279d9b44b"><path d="M 81 301 L 340 301 L 340 560.40625 L 81 560.40625 Z M 81 301 " clip-rule="nonzero"/></clipPath></defs><g clip-path="url(#42e1a98bda)"><path fill="#ffffff" d="M 510.792969 353.347656 C 510.742188 409.222656 471.417969 456.136719 417.863281 465.371094 C 398.167969 468.777344 378.886719 467.0625 360.054688 460.332031 C 357.941406 459.578125 357.324219 458.839844 357.703125 456.390625 C 364.746094 410.933594 353.84375 370.28125 324.539062 334.714844 C 316.84375 325.355469 307.9375 317.195312 298.054688 310.167969 C 296.367188 308.96875 296 308.023438 296.984375 306.089844 C 315.1875 270.472656 343.796875 248.90625 383.503906 243.246094 C 442.722656 234.808594 497.855469 275.023438 508.894531 334.089844 C 510.160156 340.878906 510.671875 347.722656 510.792969 353.347656 Z M 371.4375 371.417969 C 369.117188 371.417969 366.792969 371.417969 364.46875 371.417969 C 364.292969 371.417969 364.109375 371.417969 363.933594 371.417969 C 360.347656 371.609375 358.222656 374.230469 358.828125 377.730469 C 359.746094 383.027344 361.824219 387.820312 365.210938 392 C 371.820312 400.125 380.691406 403.863281 390.875 404.722656 C 393.046875 404.902344 393.542969 405.5625 393.421875 407.542969 C 393.265625 409.855469 393.457031 412.1875 393.355469 414.515625 C 393.28125 416.039062 393.574219 416.765625 395.363281 416.707031 C 399.117188 416.570312 402.871094 416.609375 406.625 416.6875 C 408.019531 416.714844 408.511719 416.289062 408.46875 414.871094 C 408.371094 412.277344 408.542969 409.683594 408.40625 407.09375 C 408.3125 405.371094 408.871094 404.867188 410.621094 404.742188 C 416.886719 404.265625 422.984375 402.949219 428.683594 400.167969 C 439.078125 395.09375 444.261719 386.636719 444.84375 375.226562 C 445.460938 363.308594 440.890625 354.210938 430.195312 348.460938 C 424.257812 345.269531 417.941406 343.121094 411.414062 341.511719 C 404.222656 339.742188 396.886719 338.484375 390.046875 335.523438 C 386.363281 333.925781 384.53125 330.851562 384.878906 327.277344 C 385.234375 323.433594 387.28125 321.015625 391.285156 319.996094 C 397.816406 318.332031 404.386719 318.503906 410.914062 320.109375 C 414.398438 320.96875 416.65625 323.117188 417.816406 326.550781 C 419.039062 330.1875 420.46875 331.128906 424.375 331.152344 C 428.394531 331.175781 432.425781 331.191406 436.4375 331.152344 C 441.734375 331.101562 443.996094 328.0625 442.28125 323.03125 C 437.722656 309.726562 427.761719 303.207031 414.351562 301.234375 C 410.148438 300.613281 410.128906 300.769531 410.128906 296.628906 C 410.128906 295.824219 410.066406 295.011719 410.136719 294.214844 C 410.246094 292.9375 409.71875 292.480469 408.453125 292.523438 C 406.039062 292.59375 403.625 292.539062 401.203125 292.539062 C 395.144531 292.539062 395.074219 292.539062 395.082031 298.597656 C 395.09375 300.296875 394.601562 300.898438 392.898438 301.007812 C 387.585938 301.34375 382.5 302.648438 377.671875 304.898438 C 364.347656 311.132812 357.769531 323.050781 360.085938 337.101562 C 361.78125 347.390625 368.777344 353.128906 377.777344 356.960938 C 384.375 359.773438 391.355469 361.308594 398.308594 362.988281 C 404.199219 364.40625 410.246094 365.429688 415.464844 368.804688 C 418.632812 370.84375 420.011719 373.835938 419.507812 377.523438 C 419.015625 381.128906 416.875 383.453125 413.332031 384.507812 C 407.84375 386.148438 402.269531 386.339844 396.609375 385.839844 C 389.886719 385.246094 385.5 381.953125 383.828125 375.238281 C 383.183594 372.667969 381.335938 371.421875 378.679688 371.410156 C 376.277344 371.417969 373.855469 371.417969 371.4375 371.417969 Z M 371.4375 371.417969 " fill-opacity="1" fill-rule="nonzero"/></g><g clip-path="url(#a279d9b44b)"><path fill="#ffffff" d="M 210.65625 301.871094 C 281.972656 301.871094 339.761719 359.785156 339.742188 431.238281 C 339.730469 502.886719 281.878906 560.660156 209.988281 560.410156 C 138.199219 560.140625 81.078125 501.375 81.46875 429.898438 C 81.847656 359.707031 139.910156 301.867188 210.65625 301.871094 Z M 319.679688 431.027344 C 319.609375 370.910156 270.761719 322.121094 210.65625 322.121094 C 150.152344 322.121094 101.671875 370.957031 101.71875 431.84375 C 101.773438 491.519531 150.808594 540.304688 210.65625 540.21875 C 270.949219 540.144531 319.75 491.273438 319.679688 431.027344 Z M 319.679688 431.027344 " fill-opacity="1" fill-rule="nonzero"/></g><path fill="#ffffff" d="M 320.597656 248.9375 C 317.667969 237.578125 313.105469 227.308594 305.96875 218.421875 C 283.902344 190.914062 255.15625 179.636719 220.835938 187.34375 C 186.648438 195.015625 165.464844 217.398438 157.21875 251.550781 C 154.230469 263.914062 154.667969 276.382812 157.722656 288.726562 C 158.183594 290.597656 158.03125 291.5 156.003906 292.214844 C 151.121094 293.9375 146.390625 296.101562 141.882812 298.652344 C 140.066406 299.679688 139.554688 299.222656 139.078125 297.441406 C 132.453125 272.789062 133.757812 248.589844 144.785156 225.527344 C 161.375 190.800781 189.144531 170.46875 227.328125 165.664062 C 275.496094 159.605469 321.476562 188.914062 337.4375 234.78125 C 338.316406 237.316406 337.933594 238.476562 335.507812 239.664062 C 330.378906 242.171875 325.636719 245.371094 320.597656 248.9375 Z M 320.597656 248.9375 " fill-opacity="1" fill-rule="nonzero"/><path fill="#ffffff" d="M 264.234375 248.648438 C 261.996094 248.648438 259.757812 248.597656 257.527344 248.660156 C 255.300781 248.722656 253.914062 247.683594 253.421875 245.597656 C 252.488281 241.605469 249.882812 239.652344 246.007812 238.867188 C 240.75 237.796875 235.53125 237.742188 230.335938 239.035156 C 226.96875 239.871094 225.097656 242.035156 224.828125 245.132812 C 224.523438 248.5625 225.835938 250.9375 229.109375 252.410156 C 235.097656 255.105469 241.574219 256.136719 247.886719 257.722656 C 253.445312 259.117188 258.84375 260.914062 263.921875 263.632812 C 277.058594 270.683594 278.328125 283.421875 275.296875 294.515625 C 274.902344 295.953125 274.261719 296.054688 272.980469 295.445312 C 267.566406 292.890625 261.992188 290.738281 256.289062 288.917969 C 255.476562 288.664062 254.863281 288.402344 254.789062 287.355469 C 254.503906 283.335938 251.832031 281.246094 248.457031 279.789062 C 242.917969 277.410156 236.976562 276.496094 231.191406 275.015625 C 226.34375 273.769531 221.570312 272.355469 216.972656 270.328125 C 197.625 261.785156 200.445312 239.171875 211.375 229.882812 C 216.582031 225.453125 222.546875 222.832031 229.328125 222.304688 C 231.8125 222.113281 232.644531 221.324219 232.460938 218.78125 C 232.210938 215.320312 232.402344 215.304688 236.015625 215.304688 C 238.605469 215.304688 241.203125 215.402344 243.792969 215.265625 C 245.507812 215.175781 245.871094 215.808594 245.863281 217.40625 C 245.859375 221.804688 245.929688 221.804688 250.222656 222.351562 C 262.0625 223.855469 272.238281 232.53125 274.828125 243.335938 C 275.671875 246.84375 274.300781 248.609375 270.675781 248.648438 C 268.523438 248.667969 266.378906 248.648438 264.234375 248.648438 Z M 264.234375 248.648438 " fill-opacity="1" fill-rule="nonzero"/><path fill="#ffffff" d="M 175.035156 450.28125 C 178.433594 450.292969 181.832031 450.246094 185.230469 450.296875 C 188.726562 450.347656 190.53125 451.953125 191.019531 455.320312 C 192.332031 464.417969 195.195312 467.117188 204.457031 468.273438 C 210.925781 469.070312 217.296875 468.609375 223.59375 467.023438 C 227.941406 465.9375 230.980469 463.4375 231.757812 458.839844 C 232.554688 454.0625 230.667969 450.320312 226.179688 447.644531 C 220.246094 444.109375 213.53125 442.871094 206.9375 441.355469 C 198.679688 439.453125 190.363281 437.769531 182.5625 434.335938 C 174.441406 430.753906 167.402344 425.90625 163.605469 417.484375 C 157.160156 403.160156 162.035156 386.003906 175.277344 376.566406 C 182.355469 371.523438 190.320312 368.820312 198.964844 368.273438 C 201.417969 368.117188 202.71875 367.597656 202.324219 364.757812 C 202.023438 362.558594 202.324219 360.285156 202.242188 358.054688 C 202.191406 356.726562 202.5 356.132812 203.992188 356.160156 C 209.003906 356.246094 214.011719 356.230469 219.019531 356.171875 C 220.335938 356.152344 220.722656 356.640625 220.679688 357.890625 C 220.605469 360.128906 220.890625 362.390625 220.597656 364.59375 C 220.210938 367.515625 221.519531 368.1875 224.109375 368.242188 C 229.148438 368.371094 234.015625 369.558594 238.625 371.601562 C 250.347656 376.804688 256.527344 386.203125 258.613281 398.546875 C 259.253906 402.304688 257.019531 404.851562 253.261719 404.886719 C 247.359375 404.949219 241.453125 404.902344 235.550781 404.902344 C 232.757812 404.902344 230.789062 403.527344 230.304688 400.863281 C 228.992188 393.722656 224.558594 390.265625 217.636719 389.566406 C 211.304688 388.90625 204.976562 388.695312 198.726562 390.300781 C 193.886719 391.558594 191.351562 394.316406 190.980469 398.671875 C 190.558594 403.527344 192.417969 406.707031 197.167969 408.800781 C 204.0625 411.832031 211.445312 413.28125 218.730469 414.96875 C 226.917969 416.871094 234.90625 419.277344 242.496094 422.964844 C 254.113281 428.621094 261.128906 437.496094 261.816406 450.671875 C 262.554688 464.859375 257.527344 476.382812 245.335938 484.257812 C 238.460938 488.703125 230.808594 490.976562 222.710938 491.839844 C 219.011719 492.226562 219.011719 492.21875 219.011719 495.816406 C 219.011719 498.5 218.949219 501.179688 219.035156 503.867188 C 219.074219 505.207031 218.75 505.746094 217.273438 505.726562 C 212.269531 505.632812 207.253906 505.644531 202.25 505.71875 C 200.929688 505.734375 200.574219 505.265625 200.601562 504.019531 C 200.671875 500.804688 200.53125 497.578125 200.660156 494.367188 C 200.726562 492.773438 200.289062 492.28125 198.648438 492.117188 C 185.195312 490.832031 174.378906 484.78125 166.378906 473.835938 C 162.964844 469.15625 160.765625 463.917969 159.511719 458.277344 C 158.300781 452.824219 160.34375 450.304688 165.917969 450.296875 C 168.949219 450.273438 171.992188 450.28125 175.035156 450.28125 Z M 175.035156 450.28125 " fill-opacity="1" fill-rule="nonzero"/><g fill="#ffffff" fill-opacity="1"><g transform="translate(536.454402, 411.120353)"><g><path d="M 94.09375 -100.765625 L 54.65625 -100.765625 L 54.65625 0 L 41.84375 0 L 41.84375 -100.765625 L 2.390625 -100.765625 L 2.390625 -113.0625 L 94.09375 -113.0625 Z M 94.09375 -100.765625 "/></g></g></g><g fill="#ffffff" fill-opacity="1"><g transform="translate(636.525533, 411.120353)"><g><path d="M 56.1875 -86.75 L 56.1875 -73.953125 L 54.65625 -73.953125 C 45.425781 -73.953125 37.910156 -70.25 32.109375 -62.84375 C 26.640625 -55.789062 23.90625 -47.367188 23.90625 -37.578125 L 23.90625 0 L 11.09375 0 L 11.09375 -85.390625 L 23.90625 -85.390625 L 23.90625 -64.390625 C 26.644531 -73.265625 32.566406 -79.8125 41.671875 -84.03125 C 45.429688 -85.84375 49.984375 -86.75 55.328125 -86.75 Z M 56.1875 -86.75 "/></g></g></g><g fill="#ffffff" fill-opacity="1"><g transform="translate(699.027405, 411.120353)"><g><path d="M 48.15625 -86.75 C 60.90625 -86.75 71.269531 -82.484375 79.25 -73.953125 C 86.757812 -65.753906 90.515625 -55.332031 90.515625 -42.6875 C 90.515625 -30.050781 86.757812 -19.632812 79.25 -11.4375 C 71.269531 -2.90625 60.90625 1.359375 48.15625 1.359375 C 35.40625 1.359375 25.046875 -2.90625 17.078125 -11.4375 C 9.566406 -19.632812 5.8125 -30.050781 5.8125 -42.6875 C 5.8125 -55.332031 9.566406 -65.753906 17.078125 -73.953125 C 25.046875 -82.484375 35.40625 -86.75 48.15625 -86.75 Z M 48.15625 -10.25 C 57.382812 -10.25 64.671875 -13.4375 70.015625 -19.8125 C 75.140625 -25.84375 77.703125 -33.46875 77.703125 -42.6875 C 77.703125 -51.914062 75.140625 -59.546875 70.015625 -65.578125 C 64.671875 -71.953125 57.382812 -75.140625 48.15625 -75.140625 C 38.9375 -75.140625 31.648438 -71.953125 26.296875 -65.578125 C 21.171875 -59.546875 18.609375 -51.914062 18.609375 -42.6875 C 18.609375 -33.46875 21.171875 -25.84375 26.296875 -19.8125 C 31.648438 -13.4375 38.9375 -10.25 48.15625 -10.25 Z M 48.15625 -10.25 "/></g></g></g><g fill="#ffffff" fill-opacity="1"><g transform="translate(798.927775, 411.120353)"><g><path d="M 50.546875 -10.25 C 56.015625 -10.25 60.851562 -11.785156 65.0625 -14.859375 C 69.28125 -17.929688 72.359375 -21.914062 74.296875 -26.8125 L 88.125 -26.8125 C 85.5 -18.382812 80.71875 -11.609375 73.78125 -6.484375 C 66.488281 -1.253906 57.832031 1.359375 47.8125 1.359375 C 35.289062 1.359375 25.101562 -2.90625 17.25 -11.4375 C 9.625 -19.75 5.8125 -30.164062 5.8125 -42.6875 C 5.8125 -55.21875 9.625 -65.640625 17.25 -73.953125 C 25.101562 -82.484375 35.289062 -86.75 47.8125 -86.75 C 57.832031 -86.75 66.488281 -84.132812 73.78125 -78.90625 C 80.71875 -73.78125 85.5 -67.003906 88.125 -58.578125 L 74.296875 -58.578125 C 72.359375 -63.472656 69.28125 -67.457031 65.0625 -70.53125 C 60.851562 -73.601562 56.015625 -75.140625 50.546875 -75.140625 C 45.085938 -75.140625 40.445312 -74.285156 36.625 -72.578125 C 32.8125 -70.867188 29.597656 -68.535156 26.984375 -65.578125 C 21.398438 -59.429688 18.609375 -51.800781 18.609375 -42.6875 C 18.609375 -33.582031 21.398438 -25.957031 26.984375 -19.8125 C 32.671875 -13.4375 40.523438 -10.25 50.546875 -10.25 Z M 50.546875 -10.25 "/></g></g></g><g fill="#ffffff" fill-opacity="1"><g transform="translate(895.412767, 411.120353)"><g><path d="M 77.703125 -13.65625 C 70.867188 -3.644531 60.679688 1.359375 47.140625 1.359375 C 34.835938 1.359375 24.816406 -2.90625 17.078125 -11.4375 C 9.566406 -19.863281 5.8125 -30.28125 5.8125 -42.6875 C 5.8125 -55.101562 9.566406 -65.523438 17.078125 -73.953125 C 24.816406 -82.484375 35.117188 -86.75 47.984375 -86.75 C 60.847656 -86.75 70.753906 -81.6875 77.703125 -71.5625 L 77.703125 -85.390625 L 90.515625 -85.390625 L 90.515625 0 L 77.703125 0 Z M 48.84375 -10.25 C 58.0625 -10.25 65.347656 -13.4375 70.703125 -19.8125 C 75.828125 -25.84375 78.390625 -33.46875 78.390625 -42.6875 C 78.390625 -51.914062 75.828125 -59.546875 70.703125 -65.578125 C 65.347656 -71.953125 58.0625 -75.140625 48.84375 -75.140625 C 39.738281 -75.140625 32.335938 -71.953125 26.640625 -65.578125 C 21.285156 -59.546875 18.609375 -51.914062 18.609375 -42.6875 C 18.609375 -33.46875 21.285156 -25.84375 26.640625 -19.8125 C 32.335938 -13.4375 39.738281 -10.25 48.84375 -10.25 Z M 48.84375 -10.25 "/></g></g></g><g fill="#ffffff" fill-opacity="1"><g transform="translate(1000.606985, 411.120353)"><g><path d="M 64.21875 -11.09375 C 72.300781 -11.09375 79.382812 -13.140625 85.46875 -17.234375 C 91.5625 -21.335938 96.085938 -26.863281 99.046875 -33.8125 L 112.546875 -33.8125 C 108.785156 -23.113281 102.578125 -14.6875 93.921875 -8.53125 C 84.703125 -1.9375 73.832031 1.359375 61.3125 1.359375 C 44.800781 1.359375 31.421875 -4.273438 21.171875 -15.546875 C 11.492188 -26.359375 6.65625 -40.019531 6.65625 -56.53125 C 6.65625 -73.039062 11.492188 -86.703125 21.171875 -97.515625 C 31.421875 -108.785156 44.800781 -114.421875 61.3125 -114.421875 C 73.832031 -114.421875 84.703125 -111.117188 93.921875 -104.515625 C 102.578125 -98.367188 108.785156 -89.945312 112.546875 -79.25 L 99.046875 -79.25 C 96.085938 -86.1875 91.5625 -91.703125 85.46875 -95.796875 C 79.382812 -99.898438 72.300781 -101.953125 64.21875 -101.953125 C 56.132812 -101.953125 49.414062 -100.785156 44.0625 -98.453125 C 38.707031 -96.117188 34.207031 -92.90625 30.5625 -88.8125 C 23.164062 -80.5 19.46875 -69.738281 19.46875 -56.53125 C 19.46875 -43.320312 23.164062 -32.5625 30.5625 -24.25 C 38.3125 -15.476562 49.53125 -11.09375 64.21875 -11.09375 Z M 64.21875 -11.09375 "/></g></g></g><g fill="#ffffff" fill-opacity="1"><g transform="translate(1122.02428, 411.120353)"><g><path d="M 48.15625 -86.75 C 60.90625 -86.75 71.269531 -82.484375 79.25 -73.953125 C 86.757812 -65.753906 90.515625 -55.332031 90.515625 -42.6875 C 90.515625 -30.050781 86.757812 -19.632812 79.25 -11.4375 C 71.269531 -2.90625 60.90625 1.359375 48.15625 1.359375 C 35.40625 1.359375 25.046875 -2.90625 17.078125 -11.4375 C 9.566406 -19.632812 5.8125 -30.050781 5.8125 -42.6875 C 5.8125 -55.332031 9.566406 -65.753906 17.078125 -73.953125 C 25.046875 -82.484375 35.40625 -86.75 48.15625 -86.75 Z M 48.15625 -10.25 C 57.382812 -10.25 64.671875 -13.4375 70.015625 -19.8125 C 75.140625 -25.84375 77.703125 -33.46875 77.703125 -42.6875 C 77.703125 -51.914062 75.140625 -59.546875 70.015625 -65.578125 C 64.671875 -71.953125 57.382812 -75.140625 48.15625 -75.140625 C 38.9375 -75.140625 31.648438 -71.953125 26.296875 -65.578125 C 21.171875 -59.546875 18.609375 -51.914062 18.609375 -42.6875 C 18.609375 -33.46875 21.171875 -25.84375 26.296875 -19.8125 C 31.648438 -13.4375 38.9375 -10.25 48.15625 -10.25 Z M 48.15625 -10.25 "/></g></g></g><g fill="#ffffff" fill-opacity="1"><g transform="translate(1221.924625, 411.120353)"><g><path d="M 11.09375 -85.390625 L 23.90625 -85.390625 L 23.90625 0 L 11.09375 0 Z M 24.421875 -116.46875 L 24.421875 -99.734375 L 10.59375 -99.734375 L 10.59375 -116.46875 Z M 24.421875 -116.46875 "/></g></g></g><g fill="#ffffff" fill-opacity="1"><g transform="translate(1260.518774, 411.120353)"><g><path d="M 23.90625 -85.390625 L 23.90625 -72.0625 C 26.976562 -76.164062 30.734375 -79.640625 35.171875 -82.484375 C 39.617188 -85.328125 44.6875 -86.75 50.375 -86.75 C 56.070312 -86.75 60.96875 -85.953125 65.0625 -84.359375 C 69.164062 -82.765625 72.753906 -80.375 75.828125 -77.1875 C 82.890625 -70.25 86.421875 -61.085938 86.421875 -49.703125 L 86.421875 0 L 73.609375 0 L 73.609375 -49.359375 C 73.609375 -57.210938 71.382812 -63.472656 66.9375 -68.140625 C 62.5 -72.804688 56.753906 -75.140625 49.703125 -75.140625 C 42.523438 -75.140625 36.429688 -72.75 31.421875 -67.96875 C 26.410156 -63.070312 23.90625 -56.8125 23.90625 -49.1875 L 23.90625 0 L 11.09375 0 L 11.09375 -85.390625 Z M 23.90625 -85.390625 "/></g></g></g></svg>