<svg xmlns="http://www.w3.org/2000/svg" xmlns:xlink="http://www.w3.org/1999/xlink" width="500" zoomAndPan="magnify" viewBox="0 0 375 374.999991" height="500" preserveAspectRatio="xMidYMid meet" version="1.0"><defs><g/><clipPath id="cc05230c59"><path d="M 105.949219 118.34375 L 225.914062 118.34375 L 225.914062 196.730469 L 105.949219 196.730469 Z M 105.949219 118.34375 " clip-rule="nonzero"/></clipPath><clipPath id="33fd543c3a"><path d="M 158.148438 128.46875 L 228.8125 128.46875 L 228.8125 196.738281 L 158.148438 196.738281 Z M 158.148438 128.46875 " clip-rule="nonzero"/></clipPath><clipPath id="cce9ded45f"><path d="M 193.347656 128.46875 C 173.90625 128.46875 158.148438 143.753906 158.148438 162.605469 C 158.148438 181.453125 173.90625 196.738281 193.347656 196.738281 C 212.789062 196.738281 228.550781 181.453125 228.550781 162.605469 C 228.550781 143.753906 212.789062 128.46875 193.347656 128.46875 Z M 193.347656 128.46875 " clip-rule="nonzero"/></clipPath><clipPath id="3796c2fea1"><path d="M 163.929688 132.675781 L 225.933594 132.675781 L 225.933594 165.511719 L 163.929688 165.511719 Z M 163.929688 132.675781 " clip-rule="nonzero"/></clipPath><clipPath id="649f919582"><path d="M 160.753906 159.699219 L 222.757812 159.699219 L 222.757812 192.527344 L 160.753906 192.527344 Z M 160.753906 159.699219 " clip-rule="nonzero"/></clipPath></defs><g clip-path="url(#cc05230c59)"><path fill="#004aad" d="M 192.417969 193.28125 C 175.792969 193.28125 162.269531 179.757812 162.269531 163.132812 C 162.269531 146.503906 175.792969 132.980469 192.417969 132.980469 C 209.042969 132.980469 222.570312 146.503906 222.570312 163.132812 C 222.570312 179.757812 209.042969 193.28125 192.417969 193.28125 Z M 223.378906 150.050781 C 221.683594 146.050781 219.261719 142.457031 216.175781 139.371094 C 213.09375 136.285156 209.5 133.863281 205.496094 132.171875 C 201.882812 130.644531 198.070312 129.769531 194.144531 129.574219 L 194.144531 125.699219 L 196.1875 125.699219 C 197.257812 125.699219 198.128906 124.832031 198.128906 123.757812 L 198.128906 120.285156 C 198.128906 119.210938 197.257812 118.34375 196.1875 118.34375 L 188.652344 118.34375 C 187.578125 118.34375 186.710938 119.210938 186.710938 120.285156 L 186.710938 123.757812 C 186.710938 124.832031 187.578125 125.699219 188.652344 125.699219 L 190.695312 125.699219 L 190.695312 129.574219 C 186.769531 129.769531 182.957031 130.644531 179.339844 132.171875 C 178.605469 132.484375 177.882812 132.820312 177.175781 133.179688 L 142.957031 134.894531 L 172.117188 136.355469 C 170.902344 137.277344 169.75 138.28125 168.660156 139.371094 C 168.164062 139.867188 167.6875 140.378906 167.226562 140.898438 L 133.378906 142.59375 L 164.679688 144.164062 C 163.523438 145.851562 162.523438 147.648438 161.6875 149.535156 L 117.136719 151.175781 L 160.445312 152.773438 C 159.71875 155.011719 159.234375 157.316406 158.996094 159.664062 L 105.949219 161.367188 L 158.820312 163.066406 C 158.820312 163.085938 158.820312 163.109375 158.820312 163.132812 C 158.820312 165.613281 159.085938 168.054688 159.613281 170.433594 L 107.863281 172.097656 L 160.542969 173.785156 C 160.816406 174.601562 161.125 175.410156 161.460938 176.210938 C 161.753906 176.898438 162.066406 177.574219 162.402344 178.238281 L 130.542969 179.835938 L 164.296875 181.527344 C 165.390625 183.195312 166.632812 184.769531 168.023438 186.234375 L 138.207031 187.726562 L 171.460938 189.394531 C 173.855469 191.3125 176.496094 192.886719 179.339844 194.089844 C 183.484375 195.84375 187.882812 196.730469 192.417969 196.730469 C 196.953125 196.730469 201.355469 195.84375 205.496094 194.089844 C 209.5 192.398438 213.09375 189.976562 216.175781 186.890625 C 219.261719 183.804688 221.683594 180.210938 223.378906 176.210938 C 225.128906 172.066406 226.019531 167.667969 226.019531 163.132812 C 226.019531 158.59375 225.128906 154.195312 223.378906 150.050781 " fill-opacity="1" fill-rule="nonzero"/></g><path fill="#004aad" d="M 192.417969 159.796875 C 191 159.796875 189.792969 160.691406 189.328125 161.949219 L 185.285156 162.507812 L 186.117188 166.636719 L 190.222656 165.546875 C 190.804688 166.070312 191.574219 166.386719 192.417969 166.386719 C 193.875 166.386719 195.105469 165.445312 195.542969 164.136719 L 219.519531 157.78125 L 195.082031 161.152344 C 194.484375 160.332031 193.515625 159.796875 192.417969 159.796875 " fill-opacity="1" fill-rule="nonzero"/><path fill="#004aad" d="M 192.535156 140.21875 C 193.0625 140.21875 193.492188 139.792969 193.492188 139.261719 L 193.492188 135.429688 C 193.492188 134.902344 193.0625 134.472656 192.535156 134.472656 C 192.003906 134.472656 191.578125 134.902344 191.578125 135.429688 L 191.578125 139.261719 C 191.578125 139.792969 192.003906 140.21875 192.535156 140.21875 " fill-opacity="1" fill-rule="nonzero"/><path fill="#004aad" d="M 203.953125 143.34375 C 204.105469 143.429688 204.269531 143.46875 204.433594 143.46875 C 204.765625 143.46875 205.085938 143.296875 205.261719 142.992188 L 207.179688 139.671875 C 207.445312 139.214844 207.285156 138.628906 206.828125 138.363281 C 206.371094 138.101562 205.785156 138.257812 205.519531 138.714844 L 203.605469 142.035156 C 203.339844 142.492188 203.496094 143.078125 203.953125 143.34375 " fill-opacity="1" fill-rule="nonzero"/><path fill="#004aad" d="M 212.285156 151.753906 C 212.460938 152.0625 212.785156 152.234375 213.113281 152.234375 C 213.277344 152.234375 213.441406 152.195312 213.59375 152.105469 L 216.910156 150.191406 C 217.371094 149.925781 217.527344 149.339844 217.261719 148.882812 C 216.996094 148.425781 216.410156 148.265625 215.953125 148.53125 L 212.636719 150.449219 C 212.175781 150.710938 212.019531 151.296875 212.285156 151.753906 " fill-opacity="1" fill-rule="nonzero"/><path fill="#004aad" d="M 215.292969 163.207031 C 215.292969 163.738281 215.71875 164.164062 216.25 164.164062 L 220.082031 164.164062 C 220.609375 164.164062 221.039062 163.738281 221.039062 163.207031 C 221.039062 162.679688 220.609375 162.25 220.082031 162.25 L 216.25 162.25 C 215.71875 162.25 215.292969 162.679688 215.292969 163.207031 " fill-opacity="1" fill-rule="nonzero"/><path fill="#004aad" d="M 216.796875 176.191406 L 213.476562 174.277344 C 213.019531 174.011719 212.433594 174.171875 212.171875 174.628906 C 211.90625 175.085938 212.0625 175.671875 212.519531 175.9375 L 215.839844 177.851562 C 215.988281 177.9375 216.152344 177.980469 216.316406 177.980469 C 216.648438 177.980469 216.96875 177.808594 217.144531 177.5 C 217.410156 177.042969 217.253906 176.457031 216.796875 176.191406 " fill-opacity="1" fill-rule="nonzero"/><path fill="#004aad" d="M 205.0625 183.308594 C 204.800781 182.851562 204.214844 182.691406 203.753906 182.957031 C 203.296875 183.222656 203.140625 183.808594 203.40625 184.265625 L 205.320312 187.585938 C 205.496094 187.890625 205.820312 188.0625 206.152344 188.0625 C 206.3125 188.0625 206.476562 188.023438 206.628906 187.933594 C 207.085938 187.671875 207.246094 187.085938 206.980469 186.625 L 205.0625 183.308594 " fill-opacity="1" fill-rule="nonzero"/><path fill="#004aad" d="M 192.304688 185.964844 C 191.773438 185.964844 191.347656 186.394531 191.347656 186.921875 L 191.347656 190.753906 C 191.347656 191.28125 191.773438 191.710938 192.304688 191.710938 C 192.832031 191.710938 193.261719 191.28125 193.261719 190.753906 L 193.261719 186.921875 C 193.261719 186.394531 192.832031 185.964844 192.304688 185.964844 " fill-opacity="1" fill-rule="nonzero"/><path fill="#004aad" d="M 180.882812 182.84375 C 180.425781 182.578125 179.839844 182.734375 179.574219 183.195312 L 177.660156 186.511719 C 177.394531 186.96875 177.550781 187.554688 178.011719 187.820312 C 178.160156 187.90625 178.324219 187.949219 178.488281 187.949219 C 178.820312 187.949219 179.140625 187.777344 179.320312 187.46875 L 181.234375 184.152344 C 181.5 183.691406 181.339844 183.109375 180.882812 182.84375 " fill-opacity="1" fill-rule="nonzero"/><path fill="#004aad" d="M 171.246094 174.078125 L 167.925781 175.996094 C 167.46875 176.257812 167.3125 176.84375 167.578125 177.300781 C 167.753906 177.609375 168.078125 177.78125 168.40625 177.78125 C 168.570312 177.78125 168.734375 177.738281 168.886719 177.652344 L 172.203125 175.738281 C 172.660156 175.472656 172.816406 174.886719 172.554688 174.429688 C 172.289062 173.972656 171.703125 173.8125 171.246094 174.078125 " fill-opacity="1" fill-rule="nonzero"/><path fill="#004aad" d="M 169.546875 162.976562 C 169.546875 162.449219 169.117188 162.019531 168.589844 162.019531 L 164.757812 162.019531 C 164.226562 162.019531 163.800781 162.449219 163.800781 162.976562 C 163.800781 163.507812 164.226562 163.9375 164.757812 163.9375 L 168.589844 163.9375 C 169.117188 163.9375 169.546875 163.507812 169.546875 162.976562 " fill-opacity="1" fill-rule="nonzero"/><path fill="#004aad" d="M 172.316406 150.25 L 169 148.332031 C 168.542969 148.070312 167.957031 148.226562 167.691406 148.683594 C 167.425781 149.140625 167.585938 149.726562 168.042969 149.992188 L 171.359375 151.90625 C 171.511719 151.996094 171.675781 152.035156 171.839844 152.035156 C 172.167969 152.035156 172.492188 151.863281 172.667969 151.554688 C 172.933594 151.097656 172.777344 150.511719 172.316406 150.25 " fill-opacity="1" fill-rule="nonzero"/><path fill="#004aad" d="M 179.519531 138.601562 C 179.253906 138.144531 178.667969 137.984375 178.207031 138.25 C 177.75 138.515625 177.59375 139.101562 177.859375 139.558594 L 179.773438 142.875 C 179.953125 143.183594 180.273438 143.355469 180.605469 143.355469 C 180.765625 143.355469 180.929688 143.3125 181.082031 143.226562 C 181.539062 142.960938 181.699219 142.375 181.433594 141.917969 L 179.519531 138.601562 " fill-opacity="1" fill-rule="nonzero"/><g clip-path="url(#33fd543c3a)"><g clip-path="url(#cce9ded45f)"><path fill="#233f6f" d="M 158.148438 128.46875 L 228.546875 128.46875 L 228.546875 196.738281 L 158.148438 196.738281 Z M 158.148438 128.46875 " fill-opacity="1" fill-rule="nonzero"/></g></g><path fill="#ffffff" d="M 190.824219 181.167969 L 190.824219 177.566406 C 185.644531 176.753906 182.625 173.601562 182.265625 169.234375 L 188.660156 169.234375 C 189.15625 171.574219 190.957031 173.015625 193.660156 173.015625 C 196.992188 173.015625 198.03125 171.441406 198.03125 169.640625 C 198.03125 167.433594 196.859375 166.351562 192.714844 165.136719 C 185.101562 162.972656 182.898438 160.136719 182.898438 155.945312 C 182.898438 151.398438 186.230469 148.515625 190.507812 147.703125 L 190.507812 144.777344 L 195.824219 144.777344 L 195.824219 147.660156 C 201.453125 148.515625 203.433594 151.984375 203.75 155.496094 L 197.355469 155.496094 C 197.039062 154.234375 196.453125 152.207031 193.03125 152.207031 C 190.148438 152.207031 189.292969 153.921875 189.292969 155.316406 C 189.292969 157.253906 190.371094 158.152344 195.191406 159.503906 C 201.902344 161.398438 204.425781 164.097656 204.425781 168.871094 C 204.425781 173.960938 201.136719 176.800781 196.183594 177.566406 L 196.183594 181.167969 L 190.824219 181.167969 " fill-opacity="1" fill-rule="nonzero"/><g clip-path="url(#3796c2fea1)"><path fill="#ffffff" d="M 168.953125 162.300781 C 169.089844 151.445312 176.5 141.59375 187.515625 138.847656 C 199.964844 135.746094 212.613281 142.820312 216.636719 154.777344 L 212.773438 155.742188 L 222.199219 165.5 L 225.933594 152.457031 L 221.933594 153.457031 C 217.164062 138.585938 201.5625 129.738281 186.199219 133.570312 C 174.339844 136.527344 165.898438 146.21875 163.945312 157.546875 L 168.953125 162.300781 " fill-opacity="1" fill-rule="nonzero"/></g><g clip-path="url(#649f919582)"><path fill="#ffffff" d="M 217.734375 162.898438 C 217.597656 173.757812 210.191406 183.605469 199.175781 186.351562 C 186.726562 189.457031 174.078125 182.382812 170.054688 170.425781 L 173.917969 169.460938 L 164.492188 159.703125 L 160.753906 172.742188 L 164.757812 171.746094 C 169.527344 186.617188 185.128906 195.464844 200.492188 191.632812 C 212.351562 188.675781 220.792969 178.984375 222.746094 167.65625 L 217.734375 162.898438 " fill-opacity="1" fill-rule="nonzero"/></g><g fill="#ffffff" fill-opacity="1"><g transform="translate(111.088052, 222.349308)"><g><path d="M 0.640625 -15.15625 L 14 -15.15625 L 14 -12.140625 L 9.046875 -12.140625 L 9.046875 0 L 5.609375 0 L 5.609375 -12.140625 L 0.640625 -12.140625 Z M 0.640625 -15.15625 "/></g></g></g><g fill="#ffffff" fill-opacity="1"><g transform="translate(125.724232, 222.349308)"><g><path d="M 4.734375 0 L 1.296875 0 L 1.296875 -15.15625 L 7.15625 -15.15625 C 8.0625 -15.15625 8.914062 -15.085938 9.71875 -14.953125 C 10.53125 -14.828125 11.25 -14.609375 11.875 -14.296875 C 12.507812 -13.992188 13.003906 -13.566406 13.359375 -13.015625 C 13.722656 -12.460938 13.90625 -11.765625 13.90625 -10.921875 C 13.90625 -10.085938 13.710938 -9.4375 13.328125 -8.96875 C 12.941406 -8.507812 12.453125 -8.171875 11.859375 -7.953125 C 11.273438 -7.734375 10.675781 -7.59375 10.0625 -7.53125 L 10.0625 -6.671875 L 12.28125 -6.671875 C 13.5 -6.671875 14.109375 -6.0625 14.109375 -4.84375 L 14.109375 0 L 10.65625 0 L 10.65625 -5.328125 L 4.734375 -5.328125 Z M 4.734375 -12.140625 L 4.734375 -8.34375 L 7.15625 -8.34375 C 7.84375 -8.34375 8.429688 -8.367188 8.921875 -8.421875 C 9.421875 -8.472656 9.800781 -8.628906 10.0625 -8.890625 C 10.332031 -9.148438 10.46875 -9.597656 10.46875 -10.234375 C 10.46875 -10.878906 10.332031 -11.332031 10.0625 -11.59375 C 9.800781 -11.863281 9.421875 -12.019531 8.921875 -12.0625 C 8.429688 -12.113281 7.84375 -12.140625 7.15625 -12.140625 Z M 4.734375 -12.140625 "/></g></g></g><g fill="#ffffff" fill-opacity="1"><g transform="translate(141.112632, 222.349308)"><g><path d="M 1.078125 -7.59375 C 1.078125 -9.0625 1.390625 -10.378906 2.015625 -11.546875 C 2.640625 -12.722656 3.523438 -13.65625 4.671875 -14.34375 C 5.828125 -15.03125 7.207031 -15.375 8.8125 -15.375 C 10.414062 -15.375 11.789062 -15.03125 12.9375 -14.34375 C 14.082031 -13.65625 14.96875 -12.722656 15.59375 -11.546875 C 16.21875 -10.378906 16.53125 -9.0625 16.53125 -7.59375 C 16.53125 -6.113281 16.21875 -4.785156 15.59375 -3.609375 C 14.96875 -2.429688 14.082031 -1.5 12.9375 -0.8125 C 11.789062 -0.125 10.414062 0.21875 8.8125 0.21875 C 7.207031 0.21875 5.828125 -0.125 4.671875 -0.8125 C 3.523438 -1.5 2.640625 -2.429688 2.015625 -3.609375 C 1.390625 -4.785156 1.078125 -6.113281 1.078125 -7.59375 Z M 4.515625 -7.59375 C 4.515625 -6.125 4.875 -4.957031 5.59375 -4.09375 C 6.3125 -3.226562 7.382812 -2.796875 8.8125 -2.796875 C 10.25 -2.796875 11.320312 -3.226562 12.03125 -4.09375 C 12.738281 -4.957031 13.09375 -6.125 13.09375 -7.59375 C 13.09375 -9.039062 12.738281 -10.195312 12.03125 -11.0625 C 11.320312 -11.925781 10.25 -12.359375 8.8125 -12.359375 C 7.382812 -12.359375 6.3125 -11.925781 5.59375 -11.0625 C 4.875 -10.195312 4.515625 -9.039062 4.515625 -7.59375 Z M 4.515625 -7.59375 "/></g></g></g><g fill="#ffffff" fill-opacity="1"><g transform="translate(158.714731, 222.349308)"><g><path d="M 1.078125 -7.59375 C 1.078125 -9.0625 1.390625 -10.378906 2.015625 -11.546875 C 2.648438 -12.722656 3.546875 -13.65625 4.703125 -14.34375 C 5.867188 -15.03125 7.253906 -15.375 8.859375 -15.375 C 10.273438 -15.375 11.515625 -15.128906 12.578125 -14.640625 C 13.640625 -14.148438 14.492188 -13.453125 15.140625 -12.546875 C 15.796875 -11.640625 16.195312 -10.5625 16.34375 -9.3125 L 12.90625 -9.3125 C 12.726562 -10.3125 12.273438 -11.066406 11.546875 -11.578125 C 10.816406 -12.097656 9.9375 -12.359375 8.90625 -12.359375 C 7.582031 -12.359375 6.519531 -11.953125 5.71875 -11.140625 C 4.914062 -10.335938 4.515625 -9.15625 4.515625 -7.59375 C 4.515625 -6.03125 4.914062 -4.835938 5.71875 -4.015625 C 6.519531 -3.203125 7.582031 -2.796875 8.90625 -2.796875 C 9.9375 -2.796875 10.816406 -3.054688 11.546875 -3.578125 C 12.273438 -4.097656 12.726562 -4.863281 12.90625 -5.875 L 16.34375 -5.875 C 16.195312 -4.625 15.796875 -3.539062 15.140625 -2.625 C 14.492188 -1.71875 13.640625 -1.015625 12.578125 -0.515625 C 11.515625 -0.0234375 10.273438 0.21875 8.859375 0.21875 C 7.253906 0.21875 5.867188 -0.125 4.703125 -0.8125 C 3.546875 -1.5 2.648438 -2.429688 2.015625 -3.609375 C 1.390625 -4.785156 1.078125 -6.113281 1.078125 -7.59375 Z M 1.078125 -7.59375 "/></g></g></g><g fill="#ffffff" fill-opacity="1"><g transform="translate(176.123403, 222.349308)"><g><path d="M 16.28125 0 L 12.796875 0 L 11.546875 -3.78125 L 5.15625 -3.78125 L 3.90625 0 L 0.4375 0 L 5.546875 -15.15625 L 11.140625 -15.15625 Z M 7.90625 -12.140625 L 6.15625 -6.796875 L 10.53125 -6.796875 L 8.765625 -12.140625 Z M 7.90625 -12.140625 "/></g></g></g><g fill="#ffffff" fill-opacity="1"><g transform="translate(192.822826, 222.349308)"><g/></g></g><g fill="#ffffff" fill-opacity="1"><g transform="translate(198.840633, 222.349308)"><g><path d="M 1.078125 -7.59375 C 1.078125 -9.0625 1.390625 -10.378906 2.015625 -11.546875 C 2.648438 -12.722656 3.546875 -13.65625 4.703125 -14.34375 C 5.867188 -15.03125 7.253906 -15.375 8.859375 -15.375 C 10.273438 -15.375 11.515625 -15.128906 12.578125 -14.640625 C 13.640625 -14.148438 14.492188 -13.453125 15.140625 -12.546875 C 15.796875 -11.640625 16.195312 -10.5625 16.34375 -9.3125 L 12.90625 -9.3125 C 12.726562 -10.3125 12.273438 -11.066406 11.546875 -11.578125 C 10.816406 -12.097656 9.9375 -12.359375 8.90625 -12.359375 C 7.582031 -12.359375 6.519531 -11.953125 5.71875 -11.140625 C 4.914062 -10.335938 4.515625 -9.15625 4.515625 -7.59375 C 4.515625 -6.03125 4.914062 -4.835938 5.71875 -4.015625 C 6.519531 -3.203125 7.582031 -2.796875 8.90625 -2.796875 C 9.9375 -2.796875 10.816406 -3.054688 11.546875 -3.578125 C 12.273438 -4.097656 12.726562 -4.863281 12.90625 -5.875 L 16.34375 -5.875 C 16.195312 -4.625 15.796875 -3.539062 15.140625 -2.625 C 14.492188 -1.71875 13.640625 -1.015625 12.578125 -0.515625 C 11.515625 -0.0234375 10.273438 0.21875 8.859375 0.21875 C 7.253906 0.21875 5.867188 -0.125 4.703125 -0.8125 C 3.546875 -1.5 2.648438 -2.429688 2.015625 -3.609375 C 1.390625 -4.785156 1.078125 -6.113281 1.078125 -7.59375 Z M 1.078125 -7.59375 "/></g></g></g><g fill="#ffffff" fill-opacity="1"><g transform="translate(216.249304, 222.349308)"><g><path d="M 1.078125 -7.59375 C 1.078125 -9.0625 1.390625 -10.378906 2.015625 -11.546875 C 2.640625 -12.722656 3.523438 -13.65625 4.671875 -14.34375 C 5.828125 -15.03125 7.207031 -15.375 8.8125 -15.375 C 10.414062 -15.375 11.789062 -15.03125 12.9375 -14.34375 C 14.082031 -13.65625 14.96875 -12.722656 15.59375 -11.546875 C 16.21875 -10.378906 16.53125 -9.0625 16.53125 -7.59375 C 16.53125 -6.113281 16.21875 -4.785156 15.59375 -3.609375 C 14.96875 -2.429688 14.082031 -1.5 12.9375 -0.8125 C 11.789062 -0.125 10.414062 0.21875 8.8125 0.21875 C 7.207031 0.21875 5.828125 -0.125 4.671875 -0.8125 C 3.523438 -1.5 2.640625 -2.429688 2.015625 -3.609375 C 1.390625 -4.785156 1.078125 -6.113281 1.078125 -7.59375 Z M 4.515625 -7.59375 C 4.515625 -6.125 4.875 -4.957031 5.59375 -4.09375 C 6.3125 -3.226562 7.382812 -2.796875 8.8125 -2.796875 C 10.25 -2.796875 11.320312 -3.226562 12.03125 -4.09375 C 12.738281 -4.957031 13.09375 -6.125 13.09375 -7.59375 C 13.09375 -9.039062 12.738281 -10.195312 12.03125 -11.0625 C 11.320312 -11.925781 10.25 -12.359375 8.8125 -12.359375 C 7.382812 -12.359375 6.3125 -11.925781 5.59375 -11.0625 C 4.875 -10.195312 4.515625 -9.039062 4.515625 -7.59375 Z M 4.515625 -7.59375 "/></g></g></g><g fill="#ffffff" fill-opacity="1"><g transform="translate(233.851403, 222.349308)"><g><path d="M 11.390625 -15.15625 L 11.390625 -12.140625 L 7.953125 -12.140625 L 7.953125 -3.015625 L 11.390625 -3.015625 L 11.390625 0 L 1.078125 0 L 1.078125 -3.015625 L 4.515625 -3.015625 L 4.515625 -12.140625 L 1.078125 -12.140625 L 1.078125 -15.15625 Z M 11.390625 -15.15625 "/></g></g></g><g fill="#ffffff" fill-opacity="1"><g transform="translate(246.316868, 222.349308)"><g><path d="M 12.859375 -3.015625 L 12.859375 -15.15625 L 16.296875 -15.15625 L 16.296875 0 L 9.53125 0 L 5.703125 -12.140625 L 4.734375 -12.140625 L 4.734375 0 L 1.296875 0 L 1.296875 -15.15625 L 8.0625 -15.15625 L 11.890625 -3.015625 Z M 12.859375 -3.015625 "/></g></g></g></svg>